<?xml version="1.0" encoding="UTF-8"?>
<svg id="Layer_2" xmlns="http://www.w3.org/2000/svg" viewBox="0 0 53.73 38.53">
  <defs>
    <style>
      .cls-1 {
        fill: #0296d0;
      }
    </style>
  </defs>
  <g id="Layer_1-2" data-name="Layer_1">
    <g>
      <path class="cls-1" d="M0,37.02c.93-.11,1.7-.45,2.31-1.03.61-.57,1.07-1.52,1.39-2.85s.48-3.14.48-5.43V4.73c0-1.06-.06-1.83-.18-2.31s-.35-.8-.7-.97c-.34-.17-.88-.28-1.61-.34V.28c1.11.08,2.78.13,5.01.13s4.03-.04,5.25-.13v.84c-.75.06-1.29.17-1.63.34-.33.17-.56.49-.68.97-.12.48-.18,1.24-.18,2.31v17.91c0,3.94-.19,6.74-.56,8.39-.46,2.04-1.46,3.69-2.97,4.95s-3.49,1.89-5.93,1.89v-.84Z"/>
      <g>
        <path class="cls-1" d="M24.13,16.13c0,.73.12,1.27.35,1.6.23.33.63.5,1.18.5v.5c-.49-.05-.99-.07-1.48-.07-1.39,0-2.55.11-3.49.33v-2.15c-.73,1.48-2.02,2.23-3.85,2.23-1.2,0-2.07-.31-2.61-.93-.26-.3-.44-.7-.56-1.18-.12-.49-.18-1.13-.18-1.93v-6.05c0-.73-.12-1.27-.35-1.6-.23-.33-.63-.5-1.18-.5v-.5c.49.05.99.07,1.48.07,1.39,0,2.55-.11,3.49-.33v9.91c0,.67.1,1.17.3,1.51.2.33.58.5,1.14.5.64,0,1.18-.27,1.64-.8.45-.53.68-1.19.68-1.97v-6.27c0-.73-.12-1.27-.35-1.6-.23-.33-.63-.5-1.18-.5v-.5c.51.05,1.01.07,1.48.07,1.39,0,2.55-.11,3.49-.33v10.03Z"/>
        <path class="cls-1" d="M31.6,16.51c0,.65.11,1.11.33,1.35s.62.37,1.2.37v.5c-1.66-.06-2.73-.1-3.21-.1-.54,0-1.64.03-3.3.1v-.5c.56,0,.95-.12,1.18-.37.23-.25.35-.7.35-1.35V2.87c0-.73-.12-1.27-.35-1.6-.23-.33-.63-.5-1.18-.5V.26c.51.05,1,.07,1.48.07,1.39,0,2.55-.11,3.49-.33v16.51Z"/>
        <path class="cls-1" d="M39.14,16.51c0,.65.12,1.11.35,1.35s.63.37,1.18.37v.5c-1.6-.06-2.66-.1-3.18-.1-.49,0-1.6.03-3.33.1v-.5c.57,0,.97-.12,1.2-.37s.33-.7.33-1.35v-7.54c0-.73-.11-1.27-.33-1.6s-.62-.5-1.2-.5v-.5c.51.05,1.01.07,1.48.07,1.42,0,2.58-.11,3.49-.33v10.41ZM38.86.68c.39.33.59.78.59,1.35s-.2,1.03-.59,1.35c-.39.33-.92.49-1.59.49s-1.2-.16-1.59-.49c-.39-.33-.59-.78-.59-1.35s.2-1.02.59-1.35c.39-.33.92-.49,1.59-.49s1.2.16,1.59.49Z"/>
        <path class="cls-1" d="M42.57,18.12c-.5-.53-.75-1.22-.75-2.08,0-.72.19-1.31.56-1.78.37-.47.83-.83,1.36-1.09.53-.25,1.22-.53,2.05-.81.88-.3,1.52-.58,1.93-.83s.61-.59.61-1.02v-1.87c0-.67-.16-1.19-.47-1.57-.31-.37-.79-.56-1.45-.56-.77,0-1.35.19-1.75.57.45.16.79.4,1.04.72.25.32.37.69.37,1.12,0,.54-.18.97-.55,1.29-.37.32-.81.48-1.34.48-.56,0-.99-.18-1.29-.53-.3-.35-.45-.79-.45-1.32,0-.45.11-.83.32-1.14.22-.31.55-.6.99-.87.43-.25.96-.45,1.59-.6.63-.14,1.32-.22,2.07-.22s1.46.08,2.03.24c.57.16,1.05.43,1.44.81.35.35.59.78.71,1.29s.18,1.2.18,2.08v6.51c0,.38.04.65.11.81.07.16.21.24.42.24.24,0,.53-.14.86-.41l.24.41c-.72.59-1.6.89-2.63.89-.88,0-1.49-.18-1.84-.53-.35-.35-.53-.82-.55-1.41-.8,1.29-1.97,1.94-3.52,1.94-1.02,0-1.78-.26-2.29-.79ZM48.33,16.39v-4.91c-.19.32-.6.67-1.22,1.05-.62.4-1.09.8-1.41,1.2-.32.4-.48.97-.48,1.72,0,.65.14,1.14.41,1.45.27.31.63.47,1.08.47.62,0,1.16-.33,1.63-.98Z"/>
      </g>
      <g>
        <path class="cls-1" d="M21.25,22.24c.49.2.96.48,1.43.84.13.1.24.16.33.16.23,0,.38-.35.45-1.05h.4c-.05.79-.07,2.2-.07,4.22h-.4c-.1-.86-.24-1.52-.42-1.97-.17-.45-.47-.85-.89-1.19-.29-.28-.63-.49-1.01-.64-.38-.15-.78-.22-1.2-.22-1.17,0-2.05.57-2.61,1.72-.57,1.14-.85,2.57-.85,4.28s.3,3.12.89,4.25c.59,1.14,1.48,1.71,2.65,1.71.39,0,.79-.07,1.18-.22.39-.15.72-.36.98-.64.43-.32.73-.73.9-1.22.17-.49.3-1.2.39-2.14h.4c0,2.1.02,3.57.07,4.39h-.4c-.04-.37-.09-.64-.15-.79-.06-.16-.15-.24-.27-.24-.09,0-.22.05-.37.14-.52.37-1.02.65-1.5.84s-1.05.29-1.73.29c-1.23,0-2.31-.25-3.23-.75-.92-.5-1.64-1.22-2.15-2.17s-.77-2.08-.77-3.39.26-2.41.78-3.4c.52-.99,1.25-1.75,2.19-2.3.93-.55,2-.82,3.2-.82.7,0,1.29.1,1.78.3Z"/>
        <path class="cls-1" d="M25.9,34.07c-.37-.38-.55-.89-.55-1.52,0-.52.14-.95.41-1.3.27-.34.6-.61.99-.79.39-.19.89-.38,1.49-.59.64-.22,1.11-.42,1.4-.6s.44-.43.44-.74v-1.36c0-.49-.11-.87-.34-1.14-.23-.27-.58-.41-1.05-.41-.56,0-.98.14-1.27.42.32.12.58.29.76.52.18.23.27.51.27.82,0,.39-.13.71-.4.94-.27.23-.59.35-.98.35-.41,0-.72-.13-.94-.38-.22-.26-.33-.57-.33-.96,0-.32.08-.6.24-.83.16-.23.4-.44.72-.64.31-.19.7-.33,1.16-.44.46-.1.96-.16,1.51-.16s1.06.06,1.48.17c.42.12.77.31,1.05.59.26.26.43.57.51.94.09.37.13.88.13,1.52v4.74c0,.28.03.48.08.59.05.12.15.17.31.17.17,0,.38-.1.63-.3l.17.3c-.52.43-1.16.65-1.92.65-.64,0-1.09-.13-1.34-.38s-.39-.6-.4-1.03c-.58.94-1.44,1.41-2.56,1.41-.74,0-1.3-.19-1.66-.58ZM30.09,32.82v-3.57c-.14.23-.44.49-.89.77-.45.29-.8.58-1.03.87-.23.29-.35.71-.35,1.26,0,.48.1.83.3,1.05.2.23.46.34.78.34.45,0,.85-.24,1.19-.71Z"/>
        <path class="cls-1" d="M42.69,25.95c.2.22.34.51.42.85s.12.82.12,1.41v4.69c0,.48.08.81.25.99s.46.27.86.27v.37c-1.16-.05-1.93-.07-2.3-.07-.35,0-1.1.02-2.27.07v-.37c.35,0,.59-.09.73-.27s.21-.51.21-.99v-5.42c0-.48-.08-.84-.24-1.08-.16-.24-.44-.37-.84-.37-.48,0-.88.19-1.22.58-.34.39-.51.87-.51,1.44v4.85c0,.48.07.81.21.99s.38.27.73.27v.37c-1.07-.05-1.79-.07-2.16-.07-.35,0-1.15.02-2.41.07v-.37c.42,0,.71-.09.87-.27s.24-.51.24-.99v-5.49c0-.53-.08-.92-.24-1.17-.16-.24-.45-.37-.87-.37v-.37c.37.03.73.05,1.08.05,1.03,0,1.88-.08,2.54-.24v1.57c.52-1.08,1.48-1.62,2.86-1.62.88,0,1.52.23,1.92.68Z"/>
      </g>
      <polygon class="cls-1" points="53.07 36.34 21.1 37.19 21.1 37.19 53.73 38.53 53.07 36.34"/>
    </g>
  </g>
</svg>