<?xml version="1.0" encoding="UTF-8"?>
<svg id="Layer_2" data-name="Layer 2" xmlns="http://www.w3.org/2000/svg" viewBox="0 0 176.98 60.25">
  <defs>
    <style>
      .cls-1 {
        fill: #590f39;
      }

      .cls-1, .cls-2 {
        stroke-width: 0px;
      }

      .cls-3 {
        stroke: #231f20;
        stroke-miterlimit: 10;
        stroke-width: .25px;
      }
    </style>
  </defs>
  <g id="Layer_1-2" data-name="Layer 1">
    <g>
      <path class="cls-3" d="m104.37.17s-3.06,2.42-2.16,6.18c.53,2.2,2.17,3.97,2.17,3.97,0,0,1.79-2.02,2.01-4.32.31-3.22-2.02-5.83-2.02-5.83Z"/>
      <path class="cls-3" d="m111.04,6.2s-2.95-.09-4.25,2.53c-.76,1.53-.67,3.36-.67,3.36,0,0,2.02-.3,3.26-1.53,1.74-1.71,1.66-4.36,1.66-4.36Z"/>
      <path class="cls-3" d="m97.84,6.2s2.95-.09,4.25,2.53c.76,1.53.67,3.36.67,3.36,0,0-2.02-.3-3.26-1.53-1.74-1.71-1.66-4.36-1.66-4.36Z"/>
    </g>
    <g>
      <path class="cls-2" d="m0,12.02h29.92v9h-9.81v38.99h-10.55V21.02H0v-9Z"/>
      <path class="cls-2" d="m33.57,12.02h15.08c2.93,0,5.17.14,6.73.4,1.56.27,3.13,1,4.73,2.18,1.59,1.18,2.84,2.8,3.74,4.85.9,2.05,1.35,4.35,1.35,6.91,0,6-2.25,10.22-6.75,12.66l8.82,20.99h-11.48l-6.42-18.98h-5.27v18.98h-10.55V12.02Zm10.55,7.77v13.46h4.64c4.12,0,6.19-2.31,6.19-6.93,0-1.59-.3-2.9-.91-3.92-.61-1.02-1.32-1.71-2.13-2.07-.81-.36-2-.54-3.57-.54h-4.22Z"/>
      <path class="cls-2" d="m72.81,12.02h10.55v47.99h-10.55V12.02Z"/>
      <path class="cls-2" d="m125.54,12.02h10.55v47.99h-10.55V12.02Z"/>
      <path class="cls-2" d="m144.77,12.02h11.71l12.34,29.81V12.02h8.16v47.99h-9.42l-14.62-34.73v34.73h-8.16V12.02Z"/>
    </g>
    <path class="cls-1" d="m111.04,12.02l-.02.07c1.84.32,3.24,1.92,3.24,3.85s-1.43,3.56-3.3,3.86c.81.72,1.32,1.75,1.32,2.92,0,2.02-1.54,3.67-3.51,3.88.95.72,1.56,1.84,1.56,3.12,0,1.7-1.08,3.13-2.59,3.67.39.61.62,1.32.62,2.1,0,2.16-1.75,3.92-3.92,3.92s-3.92-1.75-3.92-3.92c0-.78.23-1.5.62-2.1-1.49-.55-2.57-1.98-2.57-3.67,0-1.28.62-2.4,1.56-3.11-1.98-.2-3.54-1.85-3.54-3.88,0-1.17.52-2.2,1.33-2.92-1.85-.31-3.27-1.91-3.27-3.85s1.39-3.51,3.21-3.85l-.02-.07h-10.96l11.53,47.99,11.81.25,11.78-48.23h-10.99Z"/>
  </g>
</svg>