<?xml version="1.0" encoding="UTF-8"?>
<svg id="Layer_2" xmlns="http://www.w3.org/2000/svg" viewBox="0 0 158.81 113.89">
  <defs>
    <style>
      .cls-1 {
        fill: #0780b0;
      }
    </style>
  </defs>
  <g id="Layer_1-2" data-name="Layer_1">
    <g>
      <path class="cls-1" d="M0,109.43c2.75-.33,5.02-1.34,6.82-3.04,1.8-1.69,3.17-4.5,4.12-8.43s1.42-9.28,1.42-16.05V13.98c0-3.14-.18-5.41-.54-6.82s-1.05-2.35-2.06-2.85c-1.01-.5-2.6-.82-4.76-.99V.84c3.27.25,8.21.37,14.82.37s11.9-.12,15.5-.37v2.48c-2.22.17-3.83.5-4.81.99-.98.5-1.65,1.45-2.01,2.85-.36,1.4-.54,3.68-.54,6.82v52.93c0,11.65-.56,19.92-1.67,24.79-1.37,6.03-4.3,10.91-8.78,14.62-4.48,3.72-10.32,5.58-17.51,5.58v-2.48Z"/>
      <g>
        <path class="cls-1" d="M71.33,47.67c0,2.17.34,3.75,1.03,4.74.68.99,1.85,1.48,3.5,1.48v1.49c-1.46-.14-2.92-.21-4.39-.21-4.1,0-7.54.33-10.33.99v-6.37c-2.17,4.39-5.97,6.58-11.39,6.58-3.54,0-6.11-.92-7.71-2.76-.75-.89-1.31-2.06-1.66-3.5-.35-1.44-.53-3.33-.53-5.69v-17.89c0-2.17-.34-3.75-1.03-4.74-.68-.99-1.85-1.49-3.5-1.49v-1.48c1.46.14,2.92.21,4.39.21,4.1,0,7.54-.33,10.33-.99v29.28c0,1.98.29,3.47.88,4.46.59.99,1.71,1.48,3.36,1.48,1.89,0,3.5-.79,4.85-2.37,1.34-1.58,2.02-3.52,2.02-5.84v-18.53c0-2.17-.34-3.75-1.03-4.74-.68-.99-1.85-1.49-3.5-1.49v-1.48c1.51.14,2.97.21,4.39.21,4.1,0,7.54-.33,10.33-.99v29.64Z"/>
        <path class="cls-1" d="M93.4,48.8c0,1.93.33,3.27.99,4s1.84,1.09,3.54,1.09v1.49c-4.91-.19-8.06-.28-9.48-.28-1.6,0-4.86.09-9.76.28v-1.49c1.65,0,2.82-.36,3.5-1.09.68-.73,1.03-2.06,1.03-4V8.49c0-2.17-.34-3.75-1.03-4.74-.68-.99-1.85-1.49-3.5-1.49V.78c1.51.14,2.97.21,4.39.21,4.1,0,7.54-.33,10.33-.99v48.8Z"/>
        <path class="cls-1" d="M115.68,48.8c0,1.93.34,3.27,1.03,4s1.85,1.09,3.5,1.09v1.49c-4.72-.19-7.85-.28-9.41-.28-1.46,0-4.74.09-9.83.28v-1.49c1.7,0,2.88-.36,3.54-1.09.66-.73.99-2.06.99-4v-22.28c0-2.17-.33-3.75-.99-4.74s-1.84-1.49-3.54-1.49v-1.48c1.51.14,2.97.21,4.39.21,4.2,0,7.64-.33,10.33-.99v30.77ZM114.86,2.02c1.16.97,1.73,2.3,1.73,4s-.58,3.03-1.73,4c-1.16.97-2.72,1.45-4.7,1.45s-3.55-.48-4.7-1.45c-1.16-.96-1.73-2.3-1.73-4s.58-3.03,1.73-4c1.15-.97,2.72-1.45,4.7-1.45s3.55.48,4.7,1.45Z"/>
        <path class="cls-1" d="M125.82,53.54c-1.49-1.56-2.23-3.61-2.23-6.15,0-2.12.55-3.88,1.66-5.27,1.11-1.39,2.45-2.46,4.03-3.22,1.58-.75,3.6-1.56,6.05-2.4,2.59-.9,4.49-1.71,5.69-2.44,1.2-.73,1.8-1.73,1.8-3.01v-5.52c0-1.98-.46-3.52-1.38-4.63-.92-1.11-2.35-1.66-4.28-1.66-2.26,0-3.99.57-5.16,1.7,1.32.47,2.35,1.18,3.08,2.12.73.94,1.1,2.05,1.1,3.32,0,1.6-.54,2.88-1.63,3.82-1.09.94-2.4,1.41-3.96,1.41-1.65,0-2.92-.52-3.82-1.56-.9-1.04-1.34-2.33-1.34-3.89,0-1.32.32-2.44.96-3.36.64-.92,1.61-1.78,2.93-2.58,1.27-.75,2.84-1.34,4.7-1.77,1.86-.42,3.9-.64,6.12-.64s4.31.24,6.01.71c1.7.47,3.11,1.27,4.24,2.41,1.04,1.04,1.73,2.31,2.09,3.82s.53,3.56.53,6.15v19.24c0,1.13.11,1.93.32,2.41.21.47.62.71,1.24.71.71,0,1.56-.4,2.55-1.2l.71,1.2c-2.12,1.75-4.72,2.62-7.78,2.62-2.59,0-4.41-.52-5.45-1.56-1.04-1.04-1.58-2.43-1.63-4.17-2.36,3.82-5.82,5.73-10.4,5.73-3.02,0-5.27-.78-6.75-2.34ZM142.84,48.45v-14.5c-.57.94-1.77,1.98-3.61,3.11-1.84,1.18-3.23,2.36-4.17,3.54-.94,1.18-1.41,2.88-1.41,5.09,0,1.93.4,3.36,1.2,4.28.8.92,1.86,1.38,3.18,1.38,1.84,0,3.44-.97,4.81-2.9Z"/>
      </g>
      <g>
        <path class="cls-1" d="M62.81,65.72c1.44.59,2.85,1.41,4.23,2.47.38.31.7.46.98.46.69,0,1.13-1.03,1.34-3.09h1.18c-.14,2.34-.21,6.49-.21,12.47h-1.19c-.31-2.54-.72-4.48-1.23-5.82-.52-1.34-1.39-2.51-2.63-3.5-.86-.82-1.85-1.45-2.99-1.88-1.13-.43-2.32-.64-3.55-.64-3.47,0-6.05,1.69-7.73,5.08-1.68,3.38-2.52,7.6-2.52,12.65s.88,9.21,2.63,12.57c1.75,3.37,4.36,5.05,7.83,5.05,1.17,0,2.33-.21,3.48-.64,1.15-.43,2.12-1.06,2.91-1.88,1.27-.96,2.16-2.16,2.65-3.6.5-1.44.88-3.55,1.16-6.34h1.19c0,6.22.07,10.55.21,12.98h-1.18c-.11-1.1-.25-1.88-.44-2.35-.19-.46-.46-.7-.8-.7-.28,0-.64.14-1.08.42-1.55,1.1-3.02,1.93-4.43,2.5-1.41.57-3.11.85-5.1.85-3.64,0-6.83-.74-9.56-2.22-2.73-1.47-4.85-3.61-6.36-6.41s-2.27-6.14-2.27-10.02.77-7.13,2.32-10.04c1.55-2.92,3.7-5.19,6.47-6.8,2.76-1.61,5.92-2.42,9.45-2.42,2.06,0,3.81.29,5.25.88Z"/>
        <path class="cls-1" d="M76.54,100.7c-1.08-1.13-1.62-2.63-1.62-4.48,0-1.55.4-2.82,1.21-3.84.8-1.01,1.78-1.79,2.94-2.35,1.15-.55,2.62-1.13,4.4-1.75,1.89-.65,3.27-1.25,4.15-1.78s1.31-1.26,1.31-2.19v-4.02c0-1.45-.34-2.57-1-3.38-.67-.81-1.71-1.21-3.12-1.21-1.65,0-2.9.41-3.76,1.23.96.35,1.71.86,2.24,1.55.53.69.8,1.5.8,2.42,0,1.17-.4,2.09-1.18,2.78-.79.69-1.75,1.03-2.88,1.03-1.2,0-2.13-.38-2.78-1.13-.65-.75-.98-1.7-.98-2.83,0-.96.23-1.78.7-2.45.46-.67,1.18-1.29,2.14-1.88.93-.55,2.07-.98,3.43-1.29,1.36-.31,2.84-.46,4.46-.46s3.14.17,4.38.51c1.23.35,2.27.93,3.09,1.75.76.76,1.26,1.68,1.52,2.79.26,1.1.39,2.59.39,4.48v14.01c0,.83.08,1.41.23,1.75.16.35.46.52.9.52.51,0,1.13-.29,1.85-.87l.51.87c-1.55,1.27-3.43,1.91-5.67,1.91-1.89,0-3.21-.38-3.97-1.13s-1.15-1.77-1.18-3.04c-1.72,2.79-4.24,4.18-7.57,4.18-2.2,0-3.84-.57-4.92-1.7ZM88.93,96.99v-10.56c-.41.69-1.29,1.44-2.63,2.27-1.34.86-2.35,1.72-3.04,2.57-.69.86-1.03,2.09-1.03,3.71,0,1.41.29,2.45.88,3.11.58.67,1.36,1.01,2.32,1.01,1.34,0,2.51-.7,3.5-2.11Z"/>
        <path class="cls-1" d="M126.17,76.7c.58.65,1,1.5,1.24,2.52s.36,2.42.36,4.17v13.86c0,1.41.25,2.38.75,2.91s1.35.8,2.55.8v1.08c-3.43-.14-5.7-.21-6.8-.21-1.03,0-3.26.07-6.7.21v-1.08c1.03,0,1.75-.27,2.16-.8s.62-1.5.62-2.91v-16.02c0-1.4-.23-2.47-.7-3.19-.46-.72-1.3-1.08-2.5-1.08-1.41,0-2.61.58-3.61,1.73-1,1.15-1.5,2.57-1.5,4.25v14.32c0,1.41.21,2.38.62,2.91s1.13.8,2.16.8v1.08c-3.16-.14-5.29-.21-6.39-.21-1.03,0-3.4.07-7.11.21v-1.08c1.23,0,2.09-.27,2.57-.8s.72-1.5.72-2.91v-16.23c0-1.58-.24-2.73-.72-3.45-.48-.72-1.34-1.08-2.57-1.08v-1.08c1.1.1,2.16.15,3.19.15,3.06,0,5.56-.24,7.52-.72v4.63c1.55-3.19,4.36-4.79,8.45-4.79,2.61,0,4.5.67,5.67,2.01Z"/>
      </g>
      <polygon class="cls-1" points="156.83 107.4 62.36 109.92 62.36 109.92 158.81 113.89 156.83 107.4"/>
    </g>
  </g>
</svg>