<?xml version="1.0" encoding="UTF-8"?>
<svg id="Layer_1" xmlns="http://www.w3.org/2000/svg" version="1.1" viewBox="0 0 595.3 841.9">
  <!-- Generator: Adobe Illustrator 29.0.0, SVG Export Plug-In . SVG Version: 2.1.0 Build 186)  -->
  <defs>
    <style>
      .st0 {
        fill: #90b7b8;
      }

      .st1 {
        fill: #92b5a3;
      }

      .st2 {
        fill: #fff;
      }

      .st3, .st4 {
        fill: none;
        stroke: #fff;
        stroke-miterlimit: 10;
        stroke-width: 5px;
      }

      .st4 {
        stroke-linecap: round;
      }

      .st5 {
        fill: #ece4c2;
      }

      .st6 {
        fill: #434345;
      }
    </style>
  </defs>
  <polygon class="st2" points="0 311 490 841.9 595.3 841.9 595.3 754 0 233 0 311"/>
  <polygon class="st0" points="0 841.9 0 311 490 841.9 0 841.9"/>
  <polygon class="st1" points="0 233 0 0 595.3 0 595.3 754 0 233"/>
  <ellipse class="st6" cx="231.8" cy="495.9" rx="31.6" ry="81.7" transform="translate(-274.8 703.5) rotate(-87.2)"/>
  <circle class="st5" cx="281" cy="441" r="81"/>
  <path class="st3" d="M196,450.7c31.7,15.8,51.9-13.7,73.5,5.2,21.7,19,9.1,33.5,43.3,63.7"/>
  <path class="st4" d="M362,441c-29-18.5-57.5,8.1-76.6-12.4-19.1-20.5-5.9-28-36-60.6"/>
  <path class="st1" d="M245.3,365.9h3.3v-5c-.3,0-.6,0-.9,0s-.7,0-1,.2-.3.1-.5.2-.3.1-.5.2c-.3.2-.6.4-.9.7s-.3.3-.5.4c-.3.3-.6.5-.9.8l3.5,3.5c0-.1.2-.2.3-.3l-.5.4c.3-.2.7-.4,1-.6s.3-.2.5-.3c.3-.2.7-.5.9-.7.4-.5.7-1.1.7-1.8,0-.3,0-.7-.2-1-.1-.3-.3-.6-.5-.8-.5-.4-1.1-.8-1.8-.7s-1.3.2-1.8.7-.2.2-.3.2l.5-.4c-.3.2-.7.4-1,.6s-.3.2-.5.3c-.3.2-.7.5-.9.8-.4.5-.7,1.1-.7,1.8,0,.3,0,.7.2,1,.1.3.3.6.5.8.5.4,1.1.8,1.8.7s1.3-.3,1.8-.7,1-.9,1.6-1.3l-.5.4c.1,0,.3-.2.4-.2l-.6.3c.1,0,.3,0,.4-.1h-.7c.3,0,.7,0,1,0,.6,0,1.3-.3,1.8-.7.2-.2.4-.5.5-.8.2-.3.2-.6.2-1,0-.6-.2-1.3-.7-1.8s-1.1-.7-1.8-.7h-3.3c-.6,0-1.3.3-1.8.7-.2.2-.4.5-.5.8-.2.3-.2.6-.2,1,0,.6.2,1.3.7,1.8s1.1.7,1.8.7h0Z"/>
  <path class="st1" d="M247.9,365.9c3.2,0,3.2-5,0-5s-3.2,5,0,5h0Z"/>
  <path class="st1" d="M249.9,359.2c-.1,0-.2,0-.3,0-.3,0-.7,0-1,.2s-.8.3-1.2.5-.7.5-1,.7-.4.4-.6.5l.5-.4c0,0-.2.1-.3.2l.6-.3c-.3.1-.7.3-1,.4s-.1,0-.2.1c-.2.1-.4.3-.5.4s0,0-.1.1c-.5.5-.7,1.1-.7,1.8,0,.3,0,.7.2,1,.1.3.3.6.5.8.5.4,1.1.8,1.8.7s1.3-.3,1.8-.7,0,0,.1-.1l-.5.4c0,0,.2-.1.3-.1l-.6.3c.4-.2.9-.3,1.3-.6s.5-.4.8-.7.2-.2.3-.3l-.5.4c.3-.2.6-.4.9-.5l-.6.3c.1,0,.3-.1.4-.1h-.7c.1,0,.2,0,.3,0,.3,0,.7,0,1-.2.3-.1.6-.3.8-.5.2-.2.4-.5.5-.8.2-.3.2-.6.2-1,0-.6-.2-1.3-.7-1.8l-.5-.4c-.4-.2-.8-.3-1.3-.3h0Z"/>
  <path class="st1" d="M245.7,362.2c0,0-.1.2-.2.3l.4-.5c0,0-.2.2-.3.3l.5-.4c0,0-.1,0-.2.1l.6-.3c-.1,0-.3,0-.4,0h.7c0,0-.2,0-.2,0-.3,0-.7,0-1,.2-.3.1-.6.3-.8.5-.2.2-.4.5-.5.8-.2.3-.2.6-.2,1v.7c.2.4.4.8.7,1.1l.5.4c.4.2.8.3,1.3.3.3,0,.6,0,.9-.1s.1,0,.2,0,.1,0,.2,0c.2,0,.5-.2.7-.3s.4-.3.6-.5,0,0,.1-.1c.2-.3.5-.6.7-.9.2-.3.3-.6.3-.9,0-.3,0-.7,0-1,0-.3-.2-.6-.4-.9-.2-.3-.4-.5-.7-.6l-.6-.3c-.4-.1-.9-.1-1.3,0l-.6.3c-.4.2-.7.5-.9.9h0Z"/>
  <path class="st1" d="M248.1,365.7c.2,0,.4,0,.5,0,.3,0,.7,0,1.1-.2s.1,0,.2,0c.3-.1.5-.2.8-.3s.3-.2.5-.3c.3-.2.5-.4.7-.6.2-.2.4-.5.4-.9.1-.3.1-.7,0-1,0-.3-.1-.6-.3-.9l-.4-.5c-.3-.3-.7-.5-1.1-.6h-.7c-.5,0-.9,0-1.3.3-.2.1-.4.2-.6.3l.6-.3c-.2,0-.3.1-.5.1h.7c-.2,0-.4,0-.6,0-.3,0-.7,0-1,.2-.3.1-.6.3-.8.5-.2.2-.4.5-.5.8-.2.3-.2.6-.2,1v.7c.2.4.4.8.7,1.1l.5.4c.4.2.8.3,1.3.3h0Z"/>
  <path class="st1" d="M242.6,365.7c.1.2.3.5.5.7s.5.4.6.5,0,0,.1,0c.2,0,.5.2.7.3s.5,0,.7,0,0,0,0,0c0,0,0,0,0,0s0,0,0,0c.2,0,.5,0,.7,0s0,0,0,0c0,0,.1,0,.2,0,.2,0,.5-.2.8-.3.3-.2.5-.4.7-.6.2-.2.4-.5.4-.9v-.7c.1-.3,0-.7-.1-1,0-.2-.2-.4-.3-.6-.2-.3-.4-.5-.7-.6l-.6-.3c-.4-.1-.9-.1-1.3,0,0,0-.1,0-.2,0-.3,0-.5.2-.7.3s0,0-.1,0c-.2.1-.4.3-.6.5-.2.2-.4.5-.5.8-.2.3-.2.6-.2,1,0,.3,0,.7.2,1,.1.3.3.6.5.8l.5.4c.4.2.8.3,1.3.3h.7c.4-.2.8-.4,1.1-.7,0,0,0,0,0,0l-.5.4c0,0,.2-.1.3-.2l-.6.3c0,0,.1,0,.2,0l-1.9-4.6c0,0-.1,0-.2,0l.6-.3c0,0-.2,0-.3,0h.7c0,0-.1,0-.2,0h.7c0,0,0,0-.1,0l.6.3s0,0-.1,0l.5.4s0,0-.1-.1l.4.5s0,0,0-.1c-.2-.3-.4-.5-.6-.7-.2-.2-.5-.4-.9-.4-.3-.1-.7-.1-1,0-.3,0-.6.1-.9.3l-.5.4c-.3.3-.5.7-.6,1.1v.7c0,.5,0,.9.3,1.3h0Z"/>
  <path class="st1" d="M245.6,361.7c-.5,0-.9,0-1.4,0s-.7.2-.9.4-.4.3-.6.5,0,0,0,0c-.1.1-.3.4-.4.5s0,0,0,0c-.3.5-.3.8-.4,1.4s0,0,0,0v.7c.2.2.3.4.3.6,0,0,.3.4.4.5s.2.2.3.3.2.2.3.2,0,0,0,0c.2,0,.5.2.6.3s0,0,0,0c.6.1,1.1.1,1.7,0s.7-.2,1-.4.6-.4.9-.5l-.6.3c0,0,.1,0,.2,0,.3,0,.6-.2.9-.4.3-.2.5-.4.6-.7.2-.3.3-.6.3-.9,0-.3,0-.7,0-1l-.3-.6c-.2-.4-.5-.7-.9-.9l-.6-.3c-.4-.1-.9-.1-1.3,0-.3,0-.6.2-.9.4s-.2.1-.3.2c-.2.1-.4.3-.7.4l.6-.3c0,0-.2,0-.3,0h.7c0,0-.1,0-.2,0h.7c0,0,0,0-.1,0l.6.3s0,0-.1,0l.5.4s0,0-.1,0l.7,1.8s0,0,0,0v.7c0,0,0,0,0-.1l-.3.6s0,0,0,0l-.4.5s0,0,0,0l-.5.4s0,0,.1,0l-.6.3c.1,0,.2,0,.3,0h-.7c.2,0,.4,0,.6,0,.3,0,.7,0,1-.2.3-.1.6-.3.8-.5.2-.2.4-.5.5-.8.2-.3.2-.6.2-1v-.7c-.2-.4-.4-.8-.7-1.1l-.5-.4c-.4-.2-.8-.3-1.3-.3h0Z"/>
  <path class="st1" d="M365.1,440c0,.6,0,1.1,0,1.7v-.7c0,.2,0,.4,0,.6l.3-.6c0,.1-.1.2-.2.3l.4-.5c0,0-.1.1-.2.2l2.4-.6h0c.2,0,.4.2.6.2,0,0,0,0-.1,0l.5.4c0,0,0,0-.1-.1l.4.5c0,0,0-.1-.1-.2l.3.6c0-.2-.1-.4-.1-.5v.7c0-.9.1-1.8.2-2.7h-5c0,1,.2,2,0,3v-.7c0,.3,0,.6-.1.9l.3-.6c0,.1-.1.3-.2.4l.4-.5c0,.1-.2.2-.3.3l.5-.4c0,0-.2.1-.3.2l.6-.3h0c.6.1,1.3.2,1.9.3,0,0,0,0,0,0l.5.4s0,0,0,0l.4.5s0,0,0-.1l.3.6c0-.1,0-.3,0-.4v.7c0-.4,0-.9,0-1.3s0-.7,0-1.1v.7c0-.7.2-1.3.3-2s0-.8-.1-1.2c-.1-.6-.5-1.1-.9-1.5s-1.1-.7-1.8-.7-1.3.3-1.8.7-.8,1.1-.7,1.8.3,1.3.7,1.8c0,0,0,0,0,0l-.4-.5c0,0,0,.1.1.2l-.3-.6c0,0,0,.2,0,.2v-.7c0,.2,0,.4-.1.5v-.7c0,.6-.2,1.2-.2,1.9s0,.6,0,.9c0,1.1-.1,2.2.5,3.2s.6.8,1.1,1.1c.9.5,1.9.4,2.8,0s1.1-.9,1.4-1.4c.5-1,.7-2.1.7-3.1s0-1.4,0-2.2-.3-1.3-.7-1.8-1.1-.8-1.8-.7-1.3.2-1.8.7-.7,1.1-.7,1.8,0,.9,0,1.3c0,.7,0,1.4.1,2.1s.8,1.9,1.6,2.4,2,.5,2.9-.2.6-.5.9-.9.4-.8.5-1.3.2-1.1.1-1.6,0-.6,0-.9c0-.6-.3-1.3-.7-1.8s-1.1-.8-1.8-.7-1.3.2-1.8.7-.7,1.1-.7,1.8h0Z"/>
  <path class="st1" d="M363.8,442.6l-.2.2,4.2,1.1c0-.1,0-.2,0-.3v.7c0-.5.1-1,.1-1.6h-5v1.6c0,.3,0,.7.2,1,.1.3.3.6.5.8.2.2.5.4.8.5.3.2.6.2,1,.2h.7c.4-.2.8-.4,1.1-.7l.4-.5c.2-.4.3-.8.3-1.3v-1.7c0-.3,0-.7-.2-1-.1-.3-.3-.6-.5-.8-.2-.2-.5-.4-.8-.5-.3-.2-.6-.2-1-.2h-.7c-.4.2-.8.4-1.1.7l-.4.5c-.2.4-.3.8-.3,1.3v1.7c0,.3,0,.7.2,1,.1.3.3.6.5.8.2.2.5.4.8.5.3.2.6.2,1,.2h.7c.4-.2.8-.4,1.1-.7l.4-.5c.2-.4.3-.8.3-1.3v-1.6c0-.3,0-.7-.2-1-.1-.3-.3-.6-.5-.8-.2-.2-.5-.4-.8-.5-.3-.2-.6-.2-1-.2h-.7c-.4.2-.8.4-1.1.7l-.4.5c-.2.4-.3.8-.3,1.3,0,.3,0,.6,0,1s0,.3,0,.5c0,.3,0,.6.1.9s0,.1,0,.2c.1.4.3.8.6,1.1.3.3.7.5,1.1.6.4.1.9.1,1.3,0,.4-.1.8-.3,1.1-.6l.2-.2c.2-.2.4-.5.5-.8.2-.3.2-.6.2-1,0-.3,0-.7-.2-1-.1-.3-.3-.6-.5-.8l-.5-.4c-.4-.2-.8-.3-1.3-.3h-.7c-.4.2-.8.4-1.1.7h0Z"/>
  <path class="st1" d="M363.1,437.5c0,.3,0,.6,0,.9v-.7c0,.1,0,.3,0,.4l.3-.6c0,0,0,.1,0,.2l.4-.5s0,0,0,0l.5-.4s0,0-.1,0l.6-.3s0,0-.1,0l2.8,1.1c0,0-.1-.2-.2-.3l.3.6c0-.2,0-.3-.1-.5v.7c0-.2,0-.4,0-.6v.7c0-.1,0-.2,0-.3l-2.4,1.8s0,0,0,0h-.7c0,0,0,0,0,0l-.6-.3s0,0,0,0l-.5-.4s0,0,0,0l-.4-.5c0,0,0,.1,0,.2l-.3-.6c0,.2.1.4.1.6v-.7c0,.6,0,1.1-.1,1.7v-.7c0,.2,0,.5,0,.7l.3-.6s0,0,0,.1l4.6.6c0-.1,0-.3,0-.4v.7c0-.2,0-.4,0-.6v.7c0,0,0-.2,0-.3l-.3.6s0,0,0-.1l-.4.5s0,0,0,0l-4.2-1.1c0,.2,0,.3.1.5v-.7c0,.6,0,1.2,0,1.8v-.7c0,.3,0,.7-.2,1l.3-.6c0,0,0,.2-.1.3l4.6.6c0,0,0-.1,0-.2v.7c0-.2,0-.3,0-.5v.7c0-.3,0-.6.1-.9.1-.5.2-1,.3-1.5,0-.8,0-1.5,0-2.3,0-1.3-1.1-2.6-2.5-2.5s-2.5,1.1-2.5,2.5,0,2.2,0,3.2.1,1.2,0,1.8v-.7c0,.2,0,.3,0,.5l.3-.6c0,0,0,.1-.1.2l.4-.5s0,0-.1.1l.5-.4s0,0-.1,0l3.7,1.5c0,0,0-.2,0-.3v.7c0-.8,0-1.6.1-2.4s0-.9,0-1.4-.2-1.2-.3-1.8v.7c0-.2,0-.3,0-.5,0-.6-.3-1.4-.7-1.8s-1.1-.8-1.8-.7-1.3.2-1.8.7-.7,1.1-.7,1.8.2,1.5.3,2.2v-.7c0,1.6-.3,3.3,0,4.9s2.3,2.2,3.7,1.5,1.8-2.6,1.7-4.2,0-2.6,0-3.9h-5c0,.8,0,1.6,0,2.5v-.7c0,.4-.1.8-.2,1.2-.2.8-.2,1.5,0,2.3s1.1,1.7,2.1,1.8,2-.3,2.5-1.2.7-1.9.8-3,0-1.7-.2-2.5-.9-1.5-1.7-1.7-1.7,0-2.4.6c-1.1.9-1.2,2.7-.8,4s1.1,1.7,2.1,1.8,1.9-.4,2.5-1.2.4-.9.5-1.4.2-1.3.1-1.9-.1-1.4-.4-2c-.4-1-1.4-1.9-2.7-1.9s-2.1.7-2.4,1.8-.2,1.1-.2,1.6.2,1.5.6,2,.7.8,1.2,1,1.1.3,1.6.1c1.1-.3,2-1.2,2.2-2.4s.1-1.1.1-1.7c0-1.3-1.1-2.6-2.5-2.5s-2.5,1.1-2.5,2.5h0Z"/>
  <path class="st1" d="M243.1,363.7s0,0,0,.1v-.7c0,0,0,0,0,.1l.3-.6c0,0,0,.1,0,.2l.4-.5c-.4.5-.9,1-1.1,1.7s-.2,1.5.2,2.2,1,1.1,1.7,1.3c1.5.4,2.9-.5,4-1.4l-.5.4c0,0,.2-.1.3-.2l-.6.3c.2,0,.3,0,.5-.1h-.7c.7,0,1.4,0,2-.5s.8-.6,1.2-.9l-.5.4c.1,0,.3-.2.4-.2l-.6.3c.2,0,.5-.1.7-.2h-.7c.2,0,.5,0,.7,0h-.7c.1,0,.2,0,.3,0l-.6-.3s0,0,.1,0l-1.1-2.8h0c0-.1.2-.3.3-.5,0,0,0,.1-.1.2l.4-.5s0,0-.1.1l.5-.4c0,0-.1,0-.2.1l.6-.3c-.1,0-.3,0-.4.1h.7c-.5,0-1,0-1.5.1s-1,.4-1.5.6l.6-.3c-1.1.4-2.2.7-3.3,1.3s-1,.9-1.1,1.5,0,1.4.3,1.9c.7,1.2,2.2,1.6,3.4.9s.5-.2.7-.3l-.6.3c.4-.2.9-.3,1.3-.5s1.2-.5,1.8-.7l-.6.3c.2-.1.5-.2.8-.2h-.7c.6,0,1.2,0,1.8-.3s.7-.4,1.1-.7.6-.8.8-1.4v-.7c.1-.3,0-.7-.1-1-.2-.5-.5-.9-1-1.2-1-.6-2.2-.6-3.3-.4s-.9.2-1.2.4-.8.6-1.2.9l.5-.4c-.1,0-.2.2-.4.2l.6-.3c-.2,0-.3,0-.5.1h.7c-.7,0-1.2,0-1.8.4s-.7.5-1.1.8l.5-.4c-.2.2-.5.3-.8.4l.6-.3c-.1,0-.2,0-.3.1h.7c0,0,0,0-.1,0h.7c0,0,0,0-.1,0l.6.3h0c.2.1.3.2.5.4,0,0,0,0,0,0l.7,1.8s0,0,0-.1v.7c0,0,0,0,0-.1l-.3.6c0,0,0-.1.1-.2l-.4.5c.2-.3.5-.5.7-.9.3-.5.5-1.1.5-1.7,0-1.3-1.2-2.6-2.5-2.5s-2.5,1.1-2.5,2.5h0Z"/>
  <path class="st1" d="M367.6,441.3c0-.4.1-.7.2-1.1s0-.3,0-.5c0-.3,0-.6-.1-.9s0-.1,0-.2,0-.1,0-.2c-.1-.3-.2-.5-.3-.8-.2-.4-.5-.7-.9-.9-.4-.2-.8-.3-1.3-.3-.9,0-1.7.5-2.2,1.2s-.2.3-.2.5c-.2.3-.3.7-.4,1-.2.5-.2,1.1-.3,1.6h5c0-.6,0-1.1,0-1.7,0-.3,0-.7-.2-1-.1-.3-.3-.6-.5-.8-.2-.2-.5-.4-.8-.5-.3-.2-.6-.2-1-.2h-.7c-.4.2-.8.4-1.1.7l-.4.5c-.2.4-.3.8-.3,1.3,0,.6,0,1.1,0,1.7,0,.3,0,.7.2,1,.1.3.3.6.5.8.2.2.5.4.8.5.3.2.6.2,1,.2h.7c.4-.2.8-.4,1.1-.7l.4-.5c.2-.4.3-.8.3-1.3,0,0,0,0,0,0v.7c0-.4,0-.9.3-1.3l-.3.6c0-.2.2-.4.3-.6h-4.3c0,0,0,.1,0,.2l-.3-.6c0,.2.1.4.2.6v-.7c0,.2,0,.4,0,.6v-.7c0,.1,0,.2,0,.3-.1.3-.1.7,0,1,0,.3.1.6.3.9.2.3.4.5.6.7.2.2.5.4.9.4h.7c.5,0,.9,0,1.3-.3l.5-.4c.3-.3.5-.7.6-1.1h0Z"/>
</svg>