<?xml version="1.0" encoding="UTF-8"?>
<svg id="Layer_2" xmlns="http://www.w3.org/2000/svg" viewBox="0 0 378.92 60.45">
  <defs>
    <style>
      .cls-1 {
        fill: none;
        stroke: #3e52a3;
        stroke-miterlimit: 10;
        stroke-width: 2px;
      }
    </style>
  </defs>
  <g id="Layer_1-2" data-name="Layer_1">
    <g>
      <path class="cls-1" d="M17.32,57.83C4.13,64.07-.76,43.05,1.55,44.57,56.5,80.61,16.51,1.45,16.51,1.45h10.91s5.66,48.92-10.11,56.38Z"/>
      <path class="cls-1" d="M265.51,51.87c24.87-13.17,19.84-4.3,15.24-1.55C225.31,83.45,237.61.21,272.13,7.45c3.89.82,4.52,6.64,0,2.75-33.06-28.49-40.1,59.4-6.62,41.67Z"/>
      <path class="cls-1" d="M68.09,39.9c10.93-52.62,9.51-28.14,5.37-9.83-12.89,57.06-47.35,10.24-25.87-25.89,1.78-2.99,4.89,8.61,0,7.12-23.42-7.12,13.74,61.13,20.49,28.6Z"/>
      <path class="cls-1" d="M108.99,55.53c15.52-11.24,25.15-6.44,12.94,0-26.44,13.95-46.34-23.25-33.57-49.29,1.53-3.12,25.46-3.06,20.64-1.39-31.87,11.05-26.35,69.76,0,50.68Z"/>
      <path class="cls-1" d="M150.31,7.45c13.18-6.24-12.93.89-12.63-1.86,2.55-23.99,12.57,53.85,12.57,53.85h-10.91s-4.79-44.54,10.98-52Z"/>
      <path class="cls-1" d="M325.57,28.42c11.2,42.78-54.9,26.52-18.55-24.63,9.54-13.43,29.75,88.18,16.9,38.66,0,0-23.69,20.49-28.09,13.54-6.07-9.59,23.31-52.11,29.74-27.56Z"/>
      <path class="cls-1" d="M198.97,28.65c11.2,42.78-54.9,26.52-18.55-24.63,9.54-13.43,29.75,88.18,16.9,38.66,0,0-23.69,20.49-28.09,13.54-6.07-9.59,23.31-52.11,29.74-27.56Z"/>
      <path class="cls-1" d="M343.28,4.78c7.62,12.77,3.75,53.84,2.03,51.53-17.79-23.84,52.22-41.4,27.13-49.26-6.11-1.91,1.32,37.23,2.46,47.65,1.41,12.89-38.39-61.29-31.61-49.91Z"/>
    </g>
  </g>
</svg>